<svg width="325" height="325" viewBox="0 0 325 325" fill="none" xmlns="http://www.w3.org/2000/svg">
<circle cx="162.5" cy="162.5" r="162.5" fill="#748E6C"/>
<path d="M262.892 149.955C262.229 146.405 272.182 138.518 277.241 135.019C283.066 133.449 281.231 132.779 278.275 127.943C270.304 121.547 196.733 120.592 179.531 122.897C162.329 125.202 124.923 151.401 110.162 161.399C100.832 171.098 88.9872 174.873 80.7169 175.548C75.9456 169.842 48.1399 159.663 34.8335 155.286C35.4681 157.187 36.7467 161.568 36.784 163.888C36.8306 166.789 37.5375 170.094 38.9795 172.036C40.4215 173.977 43.6426 184.567 44.2769 186.921C44.9111 189.275 45.9151 188.227 47.4785 191.302C48.2583 195.286 49.6921 197.243 50.3115 197.724L51.8728 203.517C51.4481 204.214 50.7745 206.26 51.477 208.867C53.3082 213.617 52.2555 214.484 52.1319 216.071C52.816 217.246 51.9573 220.196 52.8615 221.506C54.6223 222.585 54.0007 224.824 53.4698 225.809L55.4213 233.051C55.3556 233.716 55.3216 235.408 55.7119 236.856C66.5268 236.078 81.7707 204.006 85.3703 200.317C88.6926 196.912 87.261 195.616 97.0625 196.242C96.3585 197.751 95.5812 198.925 94.8311 199.127C92.9468 199.635 98.2268 205.591 99.6948 205.584C101.163 205.577 101.037 209.883 104.61 209.503C107.348 211.484 105.218 213.806 111.53 214.047C111.92 215.495 112.679 214.903 112.262 216.763C117.23 215.424 142.464 203.381 144.425 199.745L146.414 198.465C149.833 198.36 153.177 198.2 156.446 197.99C210.069 194.541 243.405 177.618 253.919 172.57C265.979 169.32 285.675 149.201 285.428 145.96C283.095 144.033 281.662 148.013 281.143 148.422L281.092 148.452C274.155 150.676 263.513 153.28 262.892 149.955Z" fill="#DDEBEC"/>
<path d="M92.3663 159.98C95.089 157.537 113.796 154.27 122.809 152.942C124.129 153.751 96.1231 173.921 94.1433 171.347C92.1636 168.773 93.4603 168.812 93.1675 167.726C92.8748 166.64 88.5933 166.434 91.139 164.971C93.6847 163.509 92.2666 162.337 92.3663 159.98Z" fill="#455059"/>
<path d="M151.006 201.662C154.099 201.139 159.262 198.661 161.456 197.487L181.888 194.894C181.04 195.381 179.112 196.729 178.191 198.22C177.04 200.084 152.391 212.941 147.008 213.42C150.363 210.186 146.546 209.661 148.677 207.339C150.807 205.017 147.58 202.585 151.006 201.662Z" fill="#455059"/>
<path d="M183.412 122.822C171.172 121.266 145.482 118.439 140.647 119.587C143.072 122.041 141.149 123.724 139.885 124.259C140.34 125.496 140.459 128.299 137.287 129.62C138.792 132.477 136.395 133.809 135.008 134.118C135.227 135.159 135.269 137.543 133.683 138.748C132.097 139.952 130.931 143.308 130.546 144.836C128.833 147.029 125.111 151.293 122.002 153.426C120.409 154.249 119.736 154.621 120.263 154.404C120.806 154.182 121.392 153.845 122.002 153.426C130.423 149.08 164.553 132.15 183.412 122.822Z" fill="#455059"/>
<path d="M94.8912 196.81C95.3075 198.355 92.9245 200.792 91.6809 201.818C91.5071 206.007 95.4977 206.313 98.1869 209.04C98.7419 211.1 101.657 212.248 103.045 212.564C103.449 214.066 104.623 216.972 106.081 216.579C107.903 216.088 110.071 216.884 110.939 220.103C126.971 215.782 142.258 203.378 147.897 197.716C130.055 196.77 94.4749 195.265 94.8912 196.81Z" fill="#455059"/>
</svg>
